<?xml version="1.0" encoding="utf-8"?>
<!-- Generator: Adobe Illustrator 16.0.0, SVG Export Plug-In . SVG Version: 6.00 Build 0)  -->
<!DOCTYPE svg PUBLIC "-//W3C//DTD SVG 1.1//EN" "http://www.w3.org/Graphics/SVG/1.1/DTD/svg11.dtd">
<svg version="1.1" id="Isolation_Mode" xmlns="http://www.w3.org/2000/svg" xmlns:xlink="http://www.w3.org/1999/xlink" x="0px"
	 y="0px" width="67.5px" height="49.5px" viewBox="0 0 67.5 49.5" enable-background="new 0 0 67.5 49.5" xml:space="preserve">
<path fill="#C9C9C9" d="M60.396,41.219c-0.828,0-1.5-0.672-1.5-1.5c0-13.969-11.364-25.333-25.333-25.333S8.23,25.75,8.23,39.719
	c0,0.828-0.672,1.5-1.5,1.5s-1.5-0.672-1.5-1.5c0-15.623,12.71-28.333,28.333-28.333s28.333,12.71,28.333,28.333
	C61.896,40.547,61.225,41.219,60.396,41.219"/>
<path fill="#C9C9C9" d="M28.698,9.329h-16c-0.828,0-1.5-0.672-1.5-1.5c0-0.827,0.672-1.5,1.5-1.5h16c0.828,0,1.5,0.673,1.5,1.5
	C30.198,8.657,29.526,9.329,28.698,9.329"/>
<path fill="#C9C9C9" d="M52.698,9.329h-15c-0.828,0-1.5-0.672-1.5-1.5c0-0.827,0.672-1.5,1.5-1.5h15c0.828,0,1.5,0.673,1.5,1.5
	C54.198,8.657,53.526,9.329,52.698,9.329"/>
<path fill="#ED145B" d="M32.883,12.868c-3.051,0-5.532-2.482-5.532-5.532s2.481-5.532,5.532-5.532c3.05,0,5.531,2.482,5.531,5.532
	S35.933,12.868,32.883,12.868 M32.883,4.804c-1.396,0-2.532,1.136-2.532,2.532c0,1.396,1.136,2.532,2.532,2.532
	s2.531-1.137,2.531-2.532C35.414,5.939,34.279,4.804,32.883,4.804"/>
<path fill="#ED145B" d="M65.125,45.83c0,0.828-0.672,1.5-1.5,1.5h-6c-0.828,0-1.5-0.672-1.5-1.5v-6c0-0.829,0.672-1.5,1.5-1.5h6
	c0.828,0,1.5,0.671,1.5,1.5V45.83z M59.125,44.33h3v-3h-3V44.33z"/>
<path fill="#ED145B" d="M62.125,11.83c0,0.828-0.672,1.5-1.5,1.5h-6c-0.828,0-1.5-0.672-1.5-1.5v-7c0-0.829,0.672-1.5,1.5-1.5h6
	c0.828,0,1.5,0.671,1.5,1.5V11.83z M56.125,10.33h3v-4h-3V10.33z"/>
<path fill="#ED145B" d="M14.125,11.83c0,0.828-0.672,1.5-1.5,1.5h-6c-0.828,0-1.5-0.672-1.5-1.5v-7c0-0.829,0.672-1.5,1.5-1.5h6
	c0.828,0,1.5,0.671,1.5,1.5V11.83z M8.125,10.33h3v-4h-3V10.33z"/>
<path fill="#ED145B" d="M11.125,45.83c0,0.828-0.672,1.5-1.5,1.5h-6c-0.828,0-1.5-0.672-1.5-1.5v-6c0-0.829,0.672-1.5,1.5-1.5h6
	c0.828,0,1.5,0.671,1.5,1.5V45.83z M5.125,44.33h3v-3h-3V44.33z"/>
</svg>
